<svg width="192" height="192" viewBox="0 0 192 192" xmlns="http://www.w3.org/2000/svg">
  <defs>
    <linearGradient id="primaryGrad" x1="0%" y1="0%" x2="100%" y2="100%">
      <stop offset="0%" style="stop-color:#3b82f6;stop-opacity:1" />
      <stop offset="100%" style="stop-color:#1d4ed8;stop-opacity:1" />
    </linearGradient>
    <linearGradient id="secondaryGrad" x1="0%" y1="0%" x2="100%" y2="100%">
      <stop offset="0%" style="stop-color:#10b981;stop-opacity:1" />
      <stop offset="100%" style="stop-color:#047857;stop-opacity:1" />
    </linearGradient>
  </defs>
  <rect width="192" height="192" fill="url(#primaryGrad)" rx="28.8"/>
  
  <g transform="translate(96, 96)">
    <rect x="-8" y="-32" width="16" height="64" fill="white" rx="3"/>
    <rect x="-32" y="-8" width="64" height="16" fill="white" rx="3"/>
    <path d="M-6,-4 C-6,-8 -2,-10 0,-6 C2,-10 6,-8 6,-4 C6,0 0,6 0,6 C0,6 -6,0 -6,-4 Z" fill="url(#secondaryGrad)"/>
    
    <g transform="translate(-24, -24)" fill="url(#secondaryGrad)" opacity="0.8">
      <circle cx="0" cy="0" r="3"/>
      <circle cx="-5" cy="3" r="2"/>
      <circle cx="5" cy="3" r="2"/>
    </g>
  </g>
  
  <text x="96" y="170" text-anchor="middle" fill="white" font-family="Arial, sans-serif" font-size="14" font-weight="bold">Vetrium</text>
</svg>